<?xml version="1.0" encoding="UTF-8" standalone="no"?>
<svg 
   width="155.039993pt"
   height="71.040001pt"
   viewBox="0 0 155.039993 71.040001"
   version="1.2"
   id="svg40"
   xmlns="http://www.w3.org/2000/svg"
   xmlns:svg="http://www.w3.org/2000/svg" content="%3Cmxfile%20host%3D%22app.diagrams.net%22%20modified%3D%222022-05-04T09%3A36%3A08.450Z%22%20agent%3D%225.0%20(Windows%20NT%2010.0%3B%20Win64%3B%20x64)%20AppleWebKit%2F537.36%20(KHTML%2C%20like%20Gecko)%20Chrome%2F100.0.4896.127%20Safari%2F537.36%22%20etag%3D%22DeJP-gLPSUaXlR4Wnyay%22%20version%3D%2217.5.0%22%3E%3Cdiagram%20id%3D%22AkmxO1Z8JCVRWEdyJX1c%22%20name%3D%22Page-1%22%3E7VdJl5s4EP41PqYfZunYR%2BOFph%2Fgtdtp38TSIAyIgDDLr5%2BSAC%2B9JDOZ5M1lbGNLX62qKknlgTSNKy1DaWAS14sGouBWA2k2EMWhII3ghyF1iyjiuAX8DLsd0wXY4sbrJTu0wK6X3zBSQiKK01vQIUniOfQGQ1lGylu2VxLdWk2R31kULsDWQZH3jm2PXRq06Ej8esEfPOwHveXhfbe%2BGPXMneI8QC4pryBpPpCmGSG0HcXV1ItY8Pq4tHKLT6hnxzIvoX9HoCYLS5NOqpVPtFNZaMlar76IrZYTiopuwZ2ztO4jkJEicT2mRBhIahlg6m1T5DBqCTkHLKBxBLMhDF9xFE1JRDIuKwn8BXhnxsuoV33q%2F%2FAcFSgnj8QezWpg6QTEURfIuq%2BQbl5e8iL2WHCVk14OdaXgn1VfogWDLmD%2FIHjD0btgeS5UTzclGQ2ITxIUzS%2BoehvOC49BSNoFMfQorbutgApKbkPsVZh%2Buxq%2FXI1nVaeXT%2Bp%2BksBqmYhwN1JGPcDl7oSh1AMXYT67kV55GYageVkHvpKELlCMI8ZlEDvnJA5vSZHx6ggohU0qKtIEviDQ7Isx5Hc%2BIX7koRTndw6JOcHJOevitVUKw7dq23jIYje%2FqrIFf52rjOXgxzUGKeud%2FCy33S6mKPM9%2BrMN9L5mMy9CFJ9u%2FfjtBTj%2B%2Be6FUydlQxzzg05lWxDD8WYg24tWJMcUkwToNqEUUiGpESOoyDn6vFL7MLveKyoieqVhEmGfSVJWtyrK0%2Fb4fcUVq26VG5z0qNAjTBWiaCBN2qm4yE%2F%2BQFQrqG9xunqwxEOtyva%2BKpxGwOhhIzgzcjIkV3JrRTJr5eTEzskMJ6U5HTdu7GD9IaC2pjTLJMjRXslW20fiPmzKJR6dQEoyEqcx4nF9qEfVcndUDKnl03FvJwU97vdbe%2BCHmIKcdbK345Ze6z7ar8d61NKepENi7iaCCbgrRkdX88d6qMvLKfBpz%2BlBDITVVq%2BXMx98PEROYqW2KAPPvDC3IBNHkSs8nryZgM3ppNRnTHbC%2BVdhdTzsD42uRUdYz47bFzYRWKzM2VrQMRw96kpzbjzaNPPSmj0xaRYZ39OGuZ2YYz0OBPdhcm%2FUY4iHU7iNWdjSY2I0emnOJicHVgLRENH%2BWVrHYxm8Bm8mvhmu2QPeu%2BnhYUPOq9GCCO1d4jLPQ1%2FWQ3nkaAsBTVXmrQXZyU0sS5Y2r4zZPDenZWnMJtQIj42xlSt7KlSACS87oG05DXiEwgrNYrl73Ju7g2pN5Wq5LQUjnCstnfE5ubl7KqwmCI3dHHhNJtcY4VoAOwX4Ss1aFqxpWRuh3zw1T4XJZCDi1mydW3VZm1uga3OQeQHfTLB59i83a6EyQlPhPp%2F9KkHWp0zfczgHvRPZhjnYKS3pZbjerQtzd8w7f3uZCmxVwCMtNZOCTcWsgbYzuR8wr62z33qxnFkNYEOwyf3mfjE%2BLMum%2BKu%2BAj%2FEEWjVJX46eyB%2BGwT5Pr582wTGXgns%2FRNUpVkaWJ3b0jO2tadc14ZDR4xCY6pCrWwCV4tONi59Ox4LB6jeQxzlNuRfFw8xf2PdfxGrwJFYvcGu0cY11Fapsx09tMjLNzXqqrbdt%2B0oWYUlr7%2BVz84r9vkdvYI0ftMriMq7XkH5oFVQ%2FlircP%2FBUX3Pz1N2md2c2fffC9ITvuT82oMbVJDFtLoQYeR3v1yL3QOLzPN2BcxQzM7lxM5TziZ8AEFj3YnDouy3KgftdX2B31wtkB5625qg7kpwIE384n57V8TYddsuyIOFIZurYndDSjA0Bkyvog4UVgWs8WkXz1XnNCNHr7%2BNEpJ4b7rNHrq0CpDzHzYqn3cQ%2F7JPVd7U3vs%2BdTj%2BoPjkP1Z8X%2F%2FLPlW4U36lU%2BXZuzSqP2lS%2F%2B9Hr%2Fl%2Bfz8K08s%2FVU67%2Br8vzf8C%3C%2Fdiagram%3E%3C%2Fmxfile%3E">
  <defs
     id="defs11">
    <clipPath
       id="clip1">
      <path
         d="M 0 0 L 155 0 L 155 70.386719 L 0 70.386719 Z M 0 0 "
         id="path2" />
    </clipPath>
    <clipPath
       id="clip2">
      <path
         d="M 117 45 L 145 45 L 145 69.636719 L 117 69.636719 Z M 117 45 "
         id="path5" />
    </clipPath>
    <clipPath
       id="clip3">
      <path
         d="M 84 44 L 112 44 L 112 69.636719 L 84 69.636719 Z M 84 44 "
         id="path8" />
    </clipPath>
  </defs>
  <g
     id="surface1">
    <g
       clip-path="url(#clip1)"
       clip-rule="nonzero"
       id="g15">
      <path
         style="fill:#ffffff;fill-opacity:1;fill-rule:nonzero;stroke:none"
         d="M 0,0 H 155 V 70.386719 H 0 Z m 0,0"
         id="path13" />
    </g>
    <path
       style="fill:#000000;fill-opacity:1;fill-rule:nonzero;stroke:#000000;stroke-width:1;stroke-linecap:butt;stroke-linejoin:miter;stroke-miterlimit:4;stroke-opacity:1"
       d="M 3.000429,1.002419 H 202.99959 v 79.99862 H 3.000429 Z m 0,0"
       transform="matrix(0.748792,0,0,0.748792,0.374396,0.374396)"
       id="path17" />
    <path
       style="fill:none;stroke:#000000;stroke-width:1;stroke-linecap:butt;stroke-linejoin:miter;stroke-miterlimit:10;stroke-opacity:1"
       d="m 162.99767,75.998191 h 11.60201 v -0.328654"
       transform="matrix(0.748792,0,0,0.748792,0.374396,0.374396)"
       id="path19" />
    <path
       style="fill:#000000;fill-opacity:1;fill-rule:nonzero;stroke:none"
       d="m 131.11328,60.964844 -2.62109,-5.238282 2.62109,1.308594 2.62109,-1.308594 z m 0,0"
       id="path21" />
    <g
       clip-path="url(#clip2)"
       clip-rule="nonzero"
       id="g25">
      <path
         style="fill:none;stroke:#000000;stroke-width:1;stroke-linecap:butt;stroke-linejoin:miter;stroke-miterlimit:10;stroke-opacity:1"
         d="m 174.59968,80.917571 -3.50042,-6.99564 3.50042,1.747606 3.50043,-1.747606 z m 0,0"
         transform="matrix(0.748792,0,0,0.748792,0.374396,0.374396)"
         id="path23" />
    </g>
    <path
       style="fill:#ffffff;fill-opacity:1;fill-rule:nonzero;stroke:none"
       d="m 115.8125,23.742188 c -0.45703,-0.308594 -0.9375,-0.359376 -1.44922,-0.15625 l -15.601561,6.242187 c -0.292969,0.117187 -0.53125,0.304687 -0.710938,0.566406 C 97.875,30.65625 97.78125,30.945312 97.78125,31.261719 v 13.167969 c -0.730469,-0.246094 -1.480469,-0.363282 -2.246094,-0.34375 -3.011718,0 -5.367187,1.933593 -5.367187,4.414062 0,2.480469 2.355469,4.414062 5.367187,4.414062 0.90625,0.03906 1.773438,-0.132812 2.601563,-0.515624 0.824219,-0.382813 1.519531,-0.933594 2.078121,-1.652344 0.48438,-0.296875 0.73438,-0.726563 0.7461,-1.292969 V 38.3125 l 12.48047,-4.789062 v 7.800781 c -0.7461,-0.257813 -1.51563,-0.378907 -2.3086,-0.359375 -3.01172,0 -5.36718,1.933594 -5.36718,4.414062 0,2.480469 2.35546,4.414063 5.36718,4.414063 0.91016,0.03906 1.77735,-0.132813 2.60157,-0.515625 0.82812,-0.382813 1.51953,-0.933594 2.07812,-1.652344 0.48438,-0.292969 0.73438,-0.726562 0.75,-1.292969 V 25.023438 c -0.0195,-0.5625 -0.26953,-0.988282 -0.75,-1.28125 z m 0,0"
       id="path27" />
    <path
       style="fill:#ffffff;fill-opacity:1;fill-rule:nonzero;stroke:none"
       d="m 20.449219,21.414062 c -1.160157,0.03906 -2.042969,0.472657 -2.652344,1.308594 -0.640625,0.878906 -0.957031,2.449219 -0.957031,4.710938 0,0.703125 0.05469,1.171875 0.167968,1.40625 0.179688,0.371094 0.269532,0.617187 0.269532,0.734375 V 30.0625 h -0.492188 c -1.25,0 -2.199218,-0.273438 -2.847656,-0.824219 -0.671875,-0.570312 -1.007812,-1.472656 -1.007812,-2.714843 0,-1.582032 0.390624,-3.023438 1.171874,-4.328126 0.785157,-1.308593 2.023438,-2.363281 3.71875,-3.164062 1.671876,-0.785156 3.777344,-1.175781 6.324219,-1.175781 0.523438,0 1.214844,0.05078 2.074219,0.160156 l -0.05859,0.488281 0.04687,-0.492187 c 1.492188,0.148437 2.546875,0.21875 3.160157,0.21875 1.058593,0 1.953124,-0.117188 2.679687,-0.351563 L 32.972656,17.578125 32.664062,18.5 c -0.05859,0.179688 -0.171874,0.582031 -0.335937,1.210938 -0.191406,0.722656 -0.53125,1.339843 -1.015625,1.851562 -0.503906,0.523438 -1.171875,0.871094 -2.007812,1.039062 l -0.04688,0.0078 h -0.04687 c -1.277344,0 -2.78125,-0.203125 -4.515626,-0.609375 L 24.808594,21.523438 25.289062,21.625 23.964844,27.882812 23.484375,27.78125 V 27.289062 H 28.6875 l -0.71875,3.308594 h -4.984375 v -0.488281 l 0.480469,0.101563 -2.632813,12.210937 h -5.535156 l 4.65625,-21.601563 0.480469,0.105469 z m 0.597656,-1 -4.660156,21.621094 -0.480469,-0.101562 v -0.492188 h 4.527344 v 0.492188 l -0.480469,-0.105469 2.632813,-12.210937 h 4.988281 v 0.492187 l -0.480469,-0.105469 0.503906,-2.328125 0.480469,0.105469 v 0.492188 h -5.199219 l 1.550782,-7.34375 0.488281,0.113281 c 1.664062,0.390625 3.09375,0.585937 4.292969,0.585937 v 0.492188 l -0.09766,-0.484375 c 0.632813,-0.125 1.128907,-0.375 1.484375,-0.753907 0.375,-0.386718 0.632813,-0.863281 0.777344,-1.417968 0.171875,-0.652344 0.289062,-1.074219 0.355469,-1.273438 l 0.464843,0.152344 0.152344,0.46875 c -0.824218,0.269531 -1.816406,0.402344 -2.980468,0.402344 -0.644532,0 -1.730469,-0.07422 -3.253907,-0.222656 h -0.01563 c -0.816406,-0.105469 -1.46875,-0.15625 -1.953125,-0.15625 -2.398437,0 -4.367187,0.363281 -5.90625,1.085937 -1.511719,0.710937 -2.609375,1.640625 -3.292969,2.78125 -0.6875,1.148437 -1.03125,2.421875 -1.03125,3.820313 0,0.9375 0.21875,1.59375 0.660157,1.96875 0.464843,0.390624 1.199219,0.589843 2.210937,0.589843 v 0.492188 h -0.488281 l -0.01563,0.03125 c -0.03516,-0.08203 -0.08594,-0.191407 -0.15625,-0.339844 -0.179688,-0.371094 -0.269531,-0.980469 -0.269531,-1.832031 0,-2.476563 0.382812,-4.238282 1.148437,-5.289063 0.796875,-1.09375 1.933594,-1.664062 3.414063,-1.710937 z m -0.613281,0.511719 c -1.320313,0.03906 -2.332032,0.542969 -3.035156,1.507813 -0.699219,0.964844 -1.050782,2.632812 -1.050782,5 0,0.777344 0.07422,1.316406 0.21875,1.621094 0.148438,0.304687 0.21875,0.476562 0.21875,0.519531 -1.128906,0 -1.972656,-0.238281 -2.53125,-0.710938 -0.554687,-0.46875 -0.832031,-1.25 -0.832031,-2.339843 0,-1.488282 0.367187,-2.847657 1.101563,-4.074219 0.734374,-1.226563 1.902343,-2.21875 3.507812,-2.972657 1.601562,-0.753906 3.640625,-1.132812 6.113281,-1.132812 0.503907,0 1.175781,0.05469 2.015625,0.160156 1.507813,0.144532 2.578125,0.21875 3.207032,0.21875 1.109374,0 2.054687,-0.125 2.828124,-0.378906 -0.0625,0.191406 -0.175781,0.605469 -0.34375,1.242188 -0.167968,0.640624 -0.464843,1.1875 -0.898437,1.636718 -0.429687,0.449219 -1.011719,0.75 -1.742187,0.898438 -1.238282,0 -2.707032,-0.199219 -4.402344,-0.597656 l -1.324219,6.257812 h 4.59375 l -0.503906,2.328125 H 22.984375 L 20.433594,41.933594 H 15.90625 Z m 9.277344,4.789063 h 5.136718 L 34.3125,28.257812 33.832031,28.15625 33.507812,27.789062 c 0.738282,-0.648437 1.40625,-1.152343 2.011719,-1.503906 0.652344,-0.378906 1.359375,-0.570312 2.117188,-0.570312 0.824219,0 1.480469,0.289062 1.964843,0.867187 0.464844,0.554688 0.699219,1.214844 0.699219,1.984375 0,0.730469 -0.242187,1.371094 -0.71875,1.925782 -0.496093,0.574218 -1.175781,0.863281 -2.039062,0.863281 -0.628907,0 -1.070313,-0.179688 -1.328125,-0.539063 -0.195313,-0.277344 -0.34375,-0.660156 -0.441406,-1.148437 l 0.480468,-0.09375 -0.480468,0.109375 c -0.05078,-0.234375 -0.101563,-0.398438 -0.148438,-0.488282 0.02734,0.05469 0.05859,0.08203 0.09375,0.08203 -0.351562,0 -0.640625,0.06641 -0.867188,0.199218 -0.273437,0.160157 -0.640624,0.449219 -1.097656,0.867188 l -0.332031,-0.363281 0.484375,0.101562 -2.601562,12.339844 h -5.53125 l 3.542968,-16.707031 z m 0,0.984375 v -0.492188 l 0.484374,0.101563 -3.335937,15.726562 -0.480469,-0.101562 v -0.492188 h 4.527344 v 0.492188 l -0.480469,-0.101563 2.550781,-12.105469 0.117188,-0.109374 c 0.507812,-0.460938 0.925781,-0.792969 1.261719,-0.988282 0.378906,-0.222656 0.835937,-0.332031 1.363281,-0.332031 0.371094,0 0.632812,0.152344 0.785156,0.457031 0.08203,0.164063 0.15625,0.398438 0.230469,0.707032 v 0.01562 c 0.07031,0.351563 0.164063,0.605469 0.28125,0.769532 0.05859,0.08203 0.234375,0.125 0.527344,0.125 0.5625,0 0.996093,-0.175782 1.296875,-0.523438 0.316406,-0.367187 0.476562,-0.796875 0.476562,-1.28125 0,-0.53125 -0.15625,-0.980468 -0.464844,-1.351562 -0.292968,-0.34375 -0.695312,-0.515625 -1.214843,-0.515625 -0.582031,0 -1.121094,0.144531 -1.621094,0.4375 -0.550781,0.316406 -1.167969,0.78125 -1.859375,1.390625 l -1.109375,0.976562 0.714844,-3.398437 0.480469,0.101562 v 0.492188 z m 0,-0.492188 h 4.53125 l -0.410157,1.949219 c 0.714844,-0.628906 1.359375,-1.109375 1.933594,-1.445312 0.578125,-0.335938 1.203125,-0.503907 1.871094,-0.503907 0.671875,0 1.203125,0.230469 1.589843,0.691407 0.386719,0.460937 0.582032,1.019531 0.582032,1.667968 0,0.609375 -0.199219,1.144532 -0.597656,1.605469 -0.398438,0.460937 -0.953126,0.691406 -1.667969,0.691406 -0.460938,0 -0.769531,-0.109375 -0.925781,-0.332031 -0.160157,-0.21875 -0.277344,-0.539062 -0.363282,-0.957031 -0.0625,-0.273438 -0.125,-0.472657 -0.1875,-0.597657 -0.0625,-0.128906 -0.179687,-0.191406 -0.347656,-0.191406 -0.441406,0 -0.8125,0.08984 -1.117188,0.269532 -0.300781,0.175781 -0.695312,0.488281 -1.179687,0.925781 L 30.90625,41.933594 h -4.527344 z m 14.183593,16.40625 c -1.679687,0 -2.996093,-0.449219 -3.953125,-1.34375 C 38.980469,40.363281 38.5,38.980469 38.5,37.121094 c 0,-1.5 0.289062,-3.144532 0.871094,-4.933594 0.589844,-1.816406 1.554687,-3.382812 2.890625,-4.710938 1.375,-1.363281 3.113281,-2.042968 5.21875,-2.042968 1.277343,0 2.25,0.292968 2.917969,0.875 0.691406,0.601562 1.035156,1.480468 1.035156,2.636718 0,1.273438 -0.363282,2.445313 -1.09375,3.515626 -0.714844,1.050781 -1.664063,1.894531 -2.84375,2.53125 -1.175782,0.628906 -2.425782,0.988281 -3.753906,1.078124 l -0.03516,-0.492187 0.492188,0.03516 c -0.04297,0.617188 -0.0625,1.027344 -0.0625,1.222657 0,0.894531 0.132812,1.480468 0.394531,1.75 0.261719,0.269531 0.71875,0.402343 1.378906,0.402343 1.035156,0 1.914063,-0.234375 2.640625,-0.707031 0.769531,-0.5 1.625,-1.269531 2.558594,-2.308594 l 0.14844,-0.16016 h 2.15625 l -0.449218,0.742188 c -2.421875,4.039062 -5.445313,6.058593 -9.070313,6.058593 z m 0,-0.984375 c 3.253907,0 5.996094,-1.859375 8.230469,-5.578125 l 0.417969,0.253907 v 0.488281 h -1.066407 v -0.488281 l 0.363282,0.328124 c -0.992188,1.101563 -1.910156,1.925782 -2.753906,2.472657 -0.890626,0.578125 -1.949219,0.867187 -3.175782,0.867187 -0.9375,0 -1.628906,-0.234375 -2.082031,-0.703125 -0.449219,-0.460937 -0.675781,-1.273437 -0.675781,-2.433593 0,-0.21875 0.02344,-0.648438 0.06641,-1.289063 l 0.02734,-0.429687 0.429687,-0.02734 c 1.1875,-0.07813 2.304688,-0.402344 3.351563,-0.964844 1.042968,-0.558594 1.875,-1.300781 2.5,-2.21875 0.613281,-0.902344 0.921875,-1.890625 0.921875,-2.960938 0,-0.859374 -0.230469,-1.492187 -0.695313,-1.894531 -0.484375,-0.421875 -1.242187,-0.632812 -2.273437,-0.632812 -1.835938,0 -3.34375,0.585937 -4.527344,1.757812 -1.222656,1.214844 -2.105469,2.652344 -2.644531,4.316407 -0.550782,1.691406 -0.828125,3.234374 -0.828125,4.628906 0,1.578125 0.378906,2.722656 1.136719,3.429687 0.765624,0.71875 1.855468,1.078125 3.277343,1.078125 z m 0.03906,-8.050781 c 0.679687,-0.03516 1.332031,-0.277344 1.957031,-0.726563 0.640625,-0.457031 1.160156,-1.042968 1.554687,-1.753906 0.386719,-0.703125 0.582032,-1.441406 0.582032,-2.214844 0,-0.535156 -0.09766,-0.800781 -0.292969,-0.800781 -0.5625,0 -1.15625,0.574219 -1.789063,1.726563 -0.695312,1.273437 -1.199218,2.726562 -1.503906,4.351562 l -0.480468,-0.08984 z m 0.05078,0.984375 -0.625,0.03125 0.117187,-0.613281 c 0.324219,-1.730469 0.859376,-3.277344 1.609376,-4.644531 0.816406,-1.492188 1.699218,-2.234376 2.648437,-2.234376 0.851563,0 1.277344,0.59375 1.277344,1.78125 0,0.941407 -0.238281,1.839844 -0.707031,2.6875 -0.464844,0.84375 -1.078126,1.535157 -1.84375,2.082032 -0.777344,0.558594 -1.605469,0.859375 -2.476563,0.910156 z m -0.08984,7.558594 c -1.550781,0 -2.753906,-0.402344 -3.613281,-1.210938 -0.859375,-0.808594 -1.289062,-2.070312 -1.289062,-3.789062 0,-1.445313 0.28125,-3.039063 0.847656,-4.78125 0.566406,-1.738282 1.488281,-3.242188 2.765625,-4.511719 1.28125,-1.269531 2.90625,-1.902344 4.875,-1.902344 2.308593,0 3.460937,1.003907 3.460937,3.019531 0,1.171876 -0.335937,2.253907 -1.007812,3.238282 -0.667969,0.984375 -1.5625,1.777344 -2.671875,2.375 -1.113281,0.597656 -2.296875,0.9375 -3.554688,1.019531 -0.04297,0.628906 -0.0625,1.050781 -0.0625,1.257813 0,1.027343 0.179688,1.726562 0.535157,2.09375 0.355468,0.367187 0.933593,0.550781 1.730468,0.550781 1.132813,0 2.101563,-0.261719 2.90625,-0.789063 0.808594,-0.523437 1.695313,-1.320312 2.660156,-2.386718 h 1.066407 c -2.324219,3.878906 -5.207031,5.816406 -8.648438,5.816406 z m 0.06641,-8.050782 c 0.773437,-0.04297 1.511718,-0.316406 2.214843,-0.816406 0.703125,-0.503906 1.269531,-1.144531 1.699219,-1.921875 0.429688,-0.773437 0.644531,-1.589843 0.644531,-2.449219 0,-0.863281 -0.261719,-1.292968 -0.785156,-1.292968 -0.757813,0 -1.496094,0.660156 -2.21875,1.984375 -0.722656,1.320312 -1.242187,2.820312 -1.554687,4.496093 z m 11.949218,8.542969 c -1.660156,0 -2.96875,-0.449219 -3.921875,-1.34375 -0.960937,-0.90625 -1.445312,-2.289062 -1.445312,-4.148437 0,-1.5 0.292969,-3.144532 0.875,-4.933594 0.589843,-1.816406 1.554687,-3.382812 2.886719,-4.710938 1.375,-1.363281 3.117187,-2.042968 5.222656,-2.042968 2.632812,0 3.949218,1.167968 3.949218,3.511718 0,1.273438 -0.363281,2.445313 -1.089843,3.515626 -0.71875,1.050781 -1.664063,1.894531 -2.847657,2.53125 -1.171874,0.628906 -2.425781,0.988281 -3.753906,1.078124 l -0.03125,-0.492187 0.488282,0.04687 c -0.03906,0.445312 -0.0625,0.746094 -0.0625,0.898438 0,0.761718 0.132812,1.316406 0.390624,1.664062 0.226563,0.300781 0.582032,0.453125 1.070313,0.453125 0.511719,0 1.074219,-0.140625 1.675781,-0.425781 0.628906,-0.292969 1.199219,-0.664063 1.707032,-1.117188 l 1.066406,-0.941406 -0.253906,1.398438 c -0.617188,3.371093 -2.589844,5.058593 -5.925782,5.058593 z m 0,-0.984375 c 2.789063,0 4.441406,-1.417968 4.957032,-4.25 l 0.484374,0.08594 0.324219,0.371094 c -0.578125,0.511718 -1.226562,0.9375 -1.941406,1.269531 C 59,39.453125 58.300781,39.625 57.640625,39.625 c -0.816406,0 -1.433594,-0.285156 -1.855469,-0.851562 -0.390625,-0.519532 -0.585937,-1.269532 -0.585937,-2.25 0,-0.183594 0.01953,-0.511719 0.0625,-0.988282 l 0.03906,-0.417968 0.417969,-0.02734 c 1.1875,-0.07813 2.304688,-0.402344 3.355469,-0.964844 1.039062,-0.558594 1.875,-1.300781 2.5,-2.21875 0.613281,-0.902344 0.921875,-1.890625 0.921875,-2.960938 0,-0.859374 -0.234375,-1.492187 -0.699219,-1.894531 -0.484375,-0.421875 -1.238281,-0.632812 -2.269531,-0.632812 -1.835938,0 -3.347656,0.585937 -4.53125,1.757812 -1.21875,1.214844 -2.101563,2.652344 -2.644532,4.316407 -0.550781,1.691406 -0.824218,3.234374 -0.824218,4.628906 0,1.578125 0.378906,2.722656 1.132812,3.429687 0.765625,0.71875 1.847656,1.078125 3.25,1.078125 z m 0.05078,-8.050781 c 0.695312,-0.01953 1.355468,-0.25 1.972656,-0.695313 0.644531,-0.457031 1.160156,-1.046874 1.554687,-1.769531 0.390625,-0.710937 0.585938,-1.457031 0.585938,-2.230469 0,-0.535156 -0.09766,-0.800781 -0.296875,-0.800781 -0.539063,0 -1.121094,0.582031 -1.753906,1.742188 -0.699219,1.289062 -1.222657,2.738281 -1.570313,4.347656 l -0.480469,-0.101563 z m 0.02344,0.984375 -0.625,0.01563 0.132813,-0.613281 c 0.367187,-1.699219 0.921874,-3.238282 1.667968,-4.609375 0.816406,-1.503907 1.6875,-2.253907 2.617188,-2.253907 0.851562,0 1.277344,0.59375 1.277344,1.78125 0,0.941407 -0.234376,1.84375 -0.703126,2.703126 -0.464843,0.851562 -1.082031,1.550781 -1.84375,2.097656 -0.785156,0.5625 -1.625,0.855468 -2.523437,0.878906 z m -0.07422,7.558594 c -1.53125,0 -2.726562,-0.402344 -3.585937,-1.210938 -0.859375,-0.808594 -1.289063,-2.070312 -1.289063,-3.789062 0,-1.445313 0.285156,-3.039063 0.847656,-4.78125 0.566407,-1.738282 1.492188,-3.242188 2.769532,-4.511719 1.277344,-1.269531 2.902344,-1.902344 4.875,-1.902344 2.304687,0 3.457031,1.003907 3.457031,3.019531 0,1.171876 -0.332031,2.253907 -1.003906,3.238282 -0.671875,0.984375 -1.5625,1.777344 -2.675781,2.375 -1.109376,0.597656 -2.292969,0.9375 -3.550782,1.019531 -0.04297,0.460937 -0.0625,0.777344 -0.0625,0.945313 0,1.738281 0.648438,2.609374 1.949219,2.609374 0.585937,0 1.214844,-0.15625 1.886719,-0.472656 0.671875,-0.3125 1.277344,-0.710937 1.824218,-1.195312 -0.566406,3.105468 -2.378906,4.65625 -5.441406,4.65625 z m 0.0625,-8.050782 c 0.796875,-0.01953 1.546875,-0.285156 2.25,-0.785156 0.703125,-0.503906 1.265625,-1.148437 1.695313,-1.933594 0.429687,-0.789062 0.648437,-1.609374 0.648437,-2.46875 0,-0.863281 -0.265625,-1.292968 -0.789062,-1.292968 -0.734375,0 -1.460938,0.667968 -2.183594,2 -0.722656,1.328125 -1.265625,2.824218 -1.621094,4.480468 z M 72.390625,21.605469 h -0.378906 c -1.738281,0 -3.082031,0.421875 -4.027344,1.273437 -0.929687,0.835938 -1.394531,2.363282 -1.394531,4.585938 0,0.703125 0.05859,1.171875 0.171875,1.40625 0.179687,0.371094 0.269531,0.617187 0.269531,0.734375 v 0.488281 h -0.492188 c -1.25,0 -2.203124,-0.273438 -2.847656,-0.824219 -0.671875,-0.566406 -1.007812,-1.472656 -1.007812,-2.714843 0,-1.582032 0.390625,-3.023438 1.171875,-4.324219 0.785156,-1.3125 2.023437,-2.367188 3.71875,-3.167969 1.667969,-0.785156 3.777343,-1.175781 6.324219,-1.175781 1.410156,0 2.925781,0.125 4.542968,0.382812 1.320313,0.226563 2.488282,0.339844 3.507813,0.339844 1.277343,0 2.433593,-0.207031 3.464843,-0.625 l 0.699219,-0.28125 -0.02344,0.75 c -0.04687,1.496094 -0.441406,2.613281 -1.183594,3.351563 -0.746094,0.746093 -1.824219,1.121093 -3.238281,1.121093 -0.699219,0 -1.394531,-0.05469 -2.089844,-0.164062 -0.679684,-0.105469 -1.640622,-0.285157 -2.88281,-0.539063 l 0.09766,-0.480468 0.480469,0.101562 -4.425782,20.578125 h -5.53125 l 4.59375,-21.410156 0.480469,0.101562 z m 0.605469,-0.984375 -4.59375,21.414062 -0.480469,-0.101562 v -0.492188 h 4.53125 v 0.492188 l -0.480469,-0.105469 4.441406,-20.664063 0.476563,0.09766 c 1.230469,0.25 2.175781,0.425781 2.839844,0.53125 0.644531,0.09766 1.289062,0.148437 1.9375,0.148437 1.140625,0 1.992187,-0.277344 2.542969,-0.828125 0.558593,-0.558593 0.859374,-1.457031 0.894531,-2.6875 l 0.492187,0.01563 0.183594,0.453125 c -1.148438,0.464844 -2.425781,0.695313 -3.832031,0.695313 -1.074219,0 -2.296875,-0.117188 -3.660157,-0.351563 -1.570312,-0.246093 -3.03125,-0.371093 -4.390624,-0.371093 -2.398438,0 -4.371094,0.363281 -5.90625,1.085937 -1.515626,0.710937 -2.613282,1.640625 -3.296876,2.78125 -0.683593,1.148437 -1.027343,2.421875 -1.027343,3.820313 0,0.9375 0.21875,1.59375 0.660156,1.96875 0.460937,0.390624 1.199219,0.589843 2.210937,0.589843 v 0.492188 h -0.492187 l -0.01563,0.03125 C 66,29.554688 65.945312,29.445312 65.878906,29.300781 c -0.179687,-0.375 -0.269531,-0.984375 -0.269531,-1.835937 0,-2.515625 0.570313,-4.289063 1.71875,-5.316406 1.128906,-1.019532 2.691406,-1.527344 4.683594,-1.527344 z m -0.605469,0.492187 h -0.378906 c -1.867188,0 -3.316407,0.464844 -4.355469,1.398438 -1.039062,0.933593 -1.558594,2.585937 -1.558594,4.953125 0,0.777344 0.07422,1.316406 0.222656,1.621094 0.144532,0.304687 0.21875,0.476562 0.21875,0.519531 -1.132812,0 -1.976562,-0.238281 -2.53125,-0.707031 -0.554687,-0.472657 -0.832031,-1.253907 -0.832031,-2.34375 0,-1.488282 0.367188,-2.847657 1.101563,-4.074219 0.730468,-1.226563 1.902344,-2.214844 3.503906,-2.972657 1.605469,-0.753906 3.644531,-1.132812 6.117188,-1.132812 1.382812,0 2.871093,0.128906 4.464843,0.378906 1.34375,0.230469 2.539063,0.347656 3.585938,0.347656 1.34375,0 2.558593,-0.222656 3.648437,-0.660156 -0.04297,1.359375 -0.386718,2.367188 -1.039062,3.015625 -0.648438,0.652344 -1.613282,0.976563 -2.890625,0.976563 -0.671875,0 -1.34375,-0.05078 -2.015625,-0.15625 -0.667969,-0.105469 -1.625,-0.285156 -2.859375,-0.535156 l -4.339844,20.191406 h -4.53125 z m 8.835937,21.5 c -1.144531,0 -2.074218,-0.363281 -2.789062,-1.089843 -0.710938,-0.726563 -1.066406,-1.785157 -1.066406,-3.175782 0,-0.558594 0.08594,-1.269531 0.261718,-2.140625 l 2.21875,-10.492187 h 5.535157 l -2.390625,11.296875 -0.0039,0.0078 c -0.05078,0.210938 -0.07813,0.433594 -0.07813,0.667969 0,0.359375 0.05078,0.613281 0.148438,0.761719 0.0625,0.08594 0.160156,0.128906 0.300781,0.128906 0.4375,0 0.816407,-0.1875 1.136719,-0.566406 0.375,-0.4375 0.675781,-1.054688 0.910156,-1.847657 l 0.472656,0.140626 -0.484374,-0.105469 2.222656,-10.484375 h 5.535156 l -2.394531,11.300781 -0.0039,0.01172 c -0.07031,0.273437 -0.109374,0.566406 -0.109374,0.878906 0,0.273438 0.04687,0.449219 0.136718,0.53125 0.105469,0.09375 0.328125,0.140625 0.664063,0.140625 0.28125,0 0.476562,-0.01563 0.582031,-0.05078 0.136719,-0.04687 0.214844,-0.07422 0.234375,-0.08594 l 0.777344,-0.386718 -0.06641,0.867187 c -0.09766,1.203125 -0.519531,2.125 -1.277343,2.757813 -0.738281,0.621093 -1.640625,0.933593 -2.703125,0.933593 -1.015625,0 -1.839844,-0.308593 -2.46875,-0.925781 -0.617188,-0.609375 -0.984375,-1.441406 -1.101563,-2.5 l 0.488281,-0.05469 0.417969,0.257813 c -0.761719,1.230469 -1.574219,2.074219 -2.4375,2.535156 -0.859375,0.457031 -1.746093,0.6875 -2.667969,0.6875 z m 0,-0.984375 c 0.757813,0 1.492188,-0.191406 2.207032,-0.570312 0.707031,-0.378906 1.394531,-1.105469 2.0625,-2.183594 l 0.746094,-1.210938 0.160156,1.414063 c 0.08984,0.828125 0.363281,1.464844 0.8125,1.90625 0.441406,0.429687 1.03125,0.644531 1.78125,0.644531 0.824218,0 1.515625,-0.234375 2.074218,-0.703125 0.542969,-0.457031 0.851563,-1.148437 0.925782,-2.082031 l 0.488281,0.03906 0.222656,0.4375 c -0.06641,0.03125 -0.1875,0.07813 -0.363281,0.136719 -0.210938,0.07031 -0.507812,0.105469 -0.894531,0.105469 -0.589844,0 -1.027344,-0.132812 -1.320313,-0.394531 -0.308594,-0.273438 -0.460937,-0.695313 -0.460937,-1.261719 0,-0.398438 0.04687,-0.777344 0.140625,-1.132812 l 0.476562,0.128906 -0.480468,-0.105469 2.261718,-10.691406 0.480469,0.101562 v 0.492188 H 88.019531 V 26.207031 L 88.5,26.308594 l -2.140625,10.113281 -0.0078,0.01953 C 86.082031,37.367188 85.714844,38.105469 85.25,38.648438 84.730469,39.257812 84.105469,39.5625 83.363281,39.5625 82.878906,39.5625 82.507812,39.375 82.25,39 c -0.210938,-0.3125 -0.320312,-0.75 -0.320312,-1.3125 0,-0.3125 0.03516,-0.617188 0.109374,-0.90625 l 0.476563,0.121094 -0.480469,-0.105469 2.265625,-10.691406 0.480469,0.101562 v 0.492188 H 80.25 v -0.492188 l 0.480469,0.101563 -2.136719,10.089844 c -0.160156,0.808593 -0.242188,1.457031 -0.242188,1.949218 0,1.125 0.261719,1.953125 0.789063,2.484375 0.519531,0.53125 1.21875,0.796875 2.085937,0.796875 z m 0,0.492188 c -1.007812,0 -1.820312,-0.316406 -2.4375,-0.945313 -0.617187,-0.628906 -0.925781,-1.570312 -0.925781,-2.828125 0,-0.523437 0.08203,-1.207031 0.25,-2.042968 L 80.25,26.207031 h 4.53125 l -2.265625,10.695313 c -0.0625,0.25 -0.09375,0.511718 -0.09375,0.785156 0,0.921875 0.3125,1.382812 0.941406,1.382812 0.589844,0 1.09375,-0.246093 1.511719,-0.738281 0.417969,-0.492187 0.753906,-1.167969 1.007812,-2.027343 l 2.136719,-10.097657 h 4.527344 l -2.261719,10.695313 c -0.08594,0.3125 -0.125,0.648437 -0.125,1.003906 0,0.421875 0.09766,0.71875 0.296875,0.898438 0.199219,0.175781 0.53125,0.265624 0.992188,0.265624 0.332031,0 0.582031,-0.02734 0.738281,-0.07812 0.15625,-0.05469 0.257812,-0.08984 0.296875,-0.109376 -0.08203,1.066407 -0.449219,1.875 -1.101563,2.421876 -0.648437,0.542968 -1.445312,0.816406 -2.386718,0.816406 -0.882813,0 -1.589844,-0.261719 -2.125,-0.785156 -0.535156,-0.523438 -0.855469,-1.257813 -0.957032,-2.203126 -0.714843,1.152344 -1.464843,1.941407 -2.25,2.359376 -0.785156,0.417968 -1.597656,0.628906 -2.4375,0.628906 z m 43.117188,0.492187 c -1.67969,0 -3,-0.449219 -3.95312,-1.34375 -0.96485,-0.90625 -1.44532,-2.289062 -1.44532,-4.148437 0,-1.5 0.29297,-3.144532 0.875,-4.933594 0.58985,-1.816406 1.55078,-3.382812 2.88672,-4.710938 1.375,-1.363281 3.11719,-2.042968 5.22266,-2.042968 1.27343,0 2.24609,0.292968 2.91797,0.875 0.6875,0.601562 1.03125,1.480468 1.03125,2.636718 0,1.273438 -0.36329,2.445313 -1.08985,3.515626 -0.71875,1.050781 -1.66406,1.894531 -2.84765,2.53125 -1.17188,0.628906 -2.42578,0.988281 -3.75391,1.078124 l -0.0312,-0.492187 0.48828,0.03516 c -0.0391,0.617188 -0.0625,1.027344 -0.0625,1.222657 0,0.894531 0.13281,1.480468 0.39844,1.75 0.25781,0.269531 0.71875,0.402343 1.375,0.402343 1.03516,0 1.91797,-0.234375 2.64062,-0.707031 0.77344,-0.5 1.625,-1.269531 2.5625,-2.308594 l 0.14453,-0.160156 h 2.15625 l -0.44531,0.742188 c -2.42187,4.039062 -5.44531,6.058593 -9.07031,6.058593 z m 0,-0.984375 c 3.25391,0 5.99609,-1.859375 8.22656,-5.578125 l 0.42188,0.253907 v 0.488281 h -1.07032 v -0.488281 l 0.36719,0.328124 c -0.99609,1.101563 -1.91406,1.925782 -2.75781,2.472657 -0.88672,0.578125 -1.94531,0.867187 -3.17578,0.867187 -0.93359,0 -1.62891,-0.234375 -2.08203,-0.703125 -0.44922,-0.460937 -0.67188,-1.273437 -0.67188,-2.433593 0,-0.21875 0.0195,-0.648438 0.0625,-1.289063 l 0.0273,-0.429687 0.42968,-0.02734 c 1.1875,-0.07813 2.30469,-0.402344 3.35547,-0.964844 1.03906,-0.558594 1.875,-1.300781 2.5,-2.21875 0.61328,-0.902344 0.92188,-1.890625 0.92188,-2.960938 0,-0.859374 -0.23438,-1.492187 -0.69922,-1.894531 -0.48438,-0.421875 -1.23828,-0.632812 -2.26953,-0.632812 -1.83594,0 -3.34766,0.585937 -4.53125,1.757812 -1.22266,1.214844 -2.10156,2.652344 -2.64453,4.316407 -0.55078,1.691406 -0.82422,3.234374 -0.82422,4.628906 0,1.578125 0.3789,2.722656 1.13281,3.429687 0.76563,0.71875 1.85938,1.078125 3.28125,1.078125 z m 0.0352,-8.050781 c 0.67968,-0.03516 1.33203,-0.277344 1.95703,-0.726563 0.64453,-0.457031 1.16015,-1.042968 1.55469,-1.753906 0.39062,-0.703125 0.58593,-1.441406 0.58593,-2.214844 0,-0.535156 -0.10156,-0.800781 -0.29687,-0.800781 -0.5586,0 -1.15625,0.574219 -1.78516,1.726563 -0.69922,1.273437 -1.19922,2.726562 -1.5039,4.351562 l -0.48438,-0.08984 z m 0.0547,0.984375 -0.625,0.03125 0.11329,-0.613281 c 0.32421,-1.730469 0.86328,-3.277344 1.60937,-4.644531 0.81641,-1.492188 1.69922,-2.234376 2.64844,-2.234376 0.85156,0 1.27734,0.59375 1.27734,1.78125 0,0.941407 -0.23437,1.839844 -0.70703,2.6875 -0.46484,0.84375 -1.07812,1.535157 -1.83984,2.082032 -0.78125,0.558594 -1.60547,0.859375 -2.47657,0.910156 z m -0.0898,7.558594 c -1.55078,0 -2.75781,-0.402344 -3.61719,-1.210938 -0.85937,-0.808594 -1.28906,-2.070312 -1.28906,-3.789062 0,-1.445313 0.28125,-3.039063 0.84766,-4.78125 0.5664,-1.738282 1.48828,-3.242188 2.76953,-4.511719 1.27734,-1.269531 2.90234,-1.902344 4.875,-1.902344 2.30468,0 3.45703,1.003907 3.45703,3.019531 0,1.171876 -0.33203,2.253907 -1.00391,3.238282 -0.67187,0.984375 -1.5625,1.777344 -2.67578,2.375 -1.10937,0.597656 -2.29297,0.9375 -3.55078,1.019531 -0.043,0.628906 -0.0625,1.050781 -0.0625,1.257813 0,1.027343 0.17578,1.726562 0.53125,2.09375 0.35938,0.367187 0.93359,0.550781 1.73047,0.550781 1.13281,0 2.10156,-0.261719 2.91015,-0.789063 0.8086,-0.523437 1.69141,-1.320312 2.65625,-2.386718 h 1.07032 c -2.32813,3.878906 -5.21094,5.816406 -8.64844,5.816406 z m 0.0625,-8.050782 c 0.77734,-0.04297 1.51563,-0.316406 2.21875,-0.816406 0.69922,-0.503906 1.26563,-1.144531 1.69531,-1.921875 0.42969,-0.773437 0.64453,-1.589843 0.64453,-2.449219 0,-0.863281 -0.26172,-1.292968 -0.78515,-1.292968 -0.75391,0 -1.49219,0.660156 -2.21485,1.984375 -0.72656,1.320312 -1.24218,2.820312 -1.55859,4.496093 z m 11.10156,8.542969 c -1.08984,0 -2.01953,-0.214843 -2.78906,-0.644531 -0.77344,-0.433594 -1.35156,-1.003906 -1.73047,-1.703125 -0.375,-0.691406 -0.5625,-1.417969 -0.5625,-2.171875 0,-0.785156 0.1875,-1.476562 0.5625,-2.070312 0.375,-0.589844 0.83203,-1.019532 1.375,-1.292969 l 0.21875,0.441406 -0.42969,-0.242187 c 0.8086,-1.449219 1.51172,-2.914063 2.11328,-4.394532 0.60547,-1.484375 1.17579,-3.09375 1.71875,-4.820312 l 0.0898,-0.296875 5.5,-0.746094 0.0234,0.542969 c 0.10546,2.675781 0.28125,5.574218 0.53125,8.691406 0.10937,1.269531 0.16015,2.195312 0.16015,2.773438 0,1.394531 -0.35937,2.542968 -1.08203,3.453124 -0.70703,0.886719 -1.57812,1.527344 -2.61719,1.914063 -1.01172,0.378906 -2.03906,0.566406 -3.08203,0.566406 z m 0,-0.984375 c 0.92578,0 1.83985,-0.167968 2.73828,-0.503906 0.86719,-0.324219 1.59766,-0.859375 2.19141,-1.605469 0.57812,-0.726562 0.86719,-1.675781 0.86719,-2.839843 0,-0.550782 -0.0508,-1.449219 -0.15235,-2.695313 -0.2539,-3.132813 -0.43359,-6.042969 -0.53906,-8.730469 l 0.49219,-0.01953 0.0664,0.484375 -4.65625,0.628906 -0.0625,-0.484375 0.46875,0.144531 c -0.55078,1.753907 -1.13281,3.386719 -1.74609,4.898438 -0.61328,1.515625 -1.33594,3.019531 -2.16406,4.503906 l -0.0742,0.132813 -0.13281,0.06641 c -0.38282,0.191406 -0.71094,0.503906 -0.98438,0.941406 -0.27344,0.433594 -0.41406,0.949219 -0.41406,1.542969 0,0.589844 0.14844,1.15625 0.44531,1.703125 0.28906,0.535156 0.73828,0.972656 1.34766,1.3125 0.61719,0.347656 1.38672,0.519531 2.30859,0.519531 z M 134.5,39.144531 c 0.65234,0 1.19531,-0.1875 1.625,-0.570312 0.41406,-0.363281 0.62109,-0.984375 0.62109,-1.863281 0,-0.609376 -0.0625,-1.472657 -0.18359,-2.585938 l -0.004,-0.0078 -0.40625,-4.816407 0.48828,-0.04297 0.46875,0.144532 c -0.51171,1.683594 -1.37109,3.691406 -2.58203,6.027344 l -0.43359,-0.226563 0.22656,-0.4375 c 0.65625,0.34375 0.98828,0.855469 0.98828,1.539063 0,0.515624 -0.17187,0.976562 -0.50781,1.382812 -0.35937,0.433594 -0.81641,0.648438 -1.36719,0.648438 -0.65234,0 -1.08203,-0.230469 -1.29687,-0.695313 l 0.44531,-0.207031 h 0.49219 c 0,0.636718 0.11328,1.085937 0.33984,1.347656 0.20313,0.242188 0.56641,0.363281 1.08594,0.363281 z m 0,0.984375 c -0.82031,0 -1.43359,-0.238281 -1.83594,-0.707031 -0.38281,-0.449219 -0.57031,-1.109375 -0.57031,-1.988281 l 0.9375,-0.203125 c 0.0352,0.08203 0.17187,0.121093 0.40234,0.121093 0.24219,0 0.44922,-0.09766 0.61328,-0.292968 0.1836,-0.222656 0.27735,-0.476563 0.27735,-0.753906 0,-0.285157 -0.15235,-0.507813 -0.45703,-0.667969 l -0.4375,-0.226563 0.22656,-0.433594 c 1.17969,-2.28125 2.01953,-4.234374 2.51562,-5.859374 l 0.95704,0.09766 0.41015,4.8125 -0.48828,0.04297 0.48828,-0.05469 c 0.125,1.148437 0.19141,2.050781 0.19141,2.695313 0,1.175781 -0.32031,2.042968 -0.95313,2.601562 -0.61718,0.542969 -1.375,0.816406 -2.27734,0.816406 z m 1.00781,1.992188 c -1.00781,0 -1.85547,-0.195313 -2.54687,-0.582032 -0.69141,-0.386718 -1.20703,-0.890624 -1.54297,-1.507812 -0.33203,-0.621094 -0.5,-1.265625 -0.5,-1.9375 0,-0.691406 0.16015,-1.292969 0.48437,-1.804688 0.32813,-0.515624 0.71875,-0.886718 1.17969,-1.117187 0.82031,-1.46875 1.53125,-2.953125 2.14063,-4.453125 0.60546,-1.496094 1.18359,-3.117188 1.73046,-4.855469 l 4.65235,-0.628906 c 0.10547,2.683594 0.28515,5.585937 0.53515,8.710937 0.10547,1.257813 0.15625,2.167969 0.15625,2.734376 0,1.28125 -0.32421,2.328124 -0.97265,3.144531 -0.65235,0.820312 -1.45313,1.40625 -2.40625,1.761719 -0.95313,0.355468 -1.92578,0.535156 -2.91016,0.535156 z M 134.5,39.636719 c 0.77734,0 1.42578,-0.230469 1.95312,-0.691407 0.52344,-0.460937 0.78516,-1.207031 0.78516,-2.234374 0,-0.628907 -0.0625,-1.507813 -0.1875,-2.640626 -0.21094,-2.390624 -0.34766,-3.996093 -0.41016,-4.8125 -0.5039,1.65625 -1.35156,3.636719 -2.54687,5.945313 0.48047,0.25 0.72266,0.617187 0.72266,1.101563 0,0.398437 -0.13282,0.753906 -0.39454,1.066406 -0.26171,0.316406 -0.58984,0.472656 -0.98828,0.472656 -0.4414,0 -0.72265,-0.136719 -0.85156,-0.410156 0,0.757812 0.15234,1.3125 0.45703,1.667968 0.30469,0.355469 0.79297,0.535157 1.46094,0.535157 z m 0,0"
       id="path29" />
    <path
       style="fill:none;stroke:#000000;stroke-width:1;stroke-linecap:butt;stroke-linejoin:miter;stroke-miterlimit:10;stroke-opacity:1"
       d="m 137.99908,75.998191 h -6.12967"
       transform="matrix(0.748792,0,0,0.748792,0.374396,0.374396)"
       id="path31" />
    <path
       style="fill:#000000;fill-opacity:1;fill-rule:nonzero;stroke:none"
       d="m 95.1875,57.28125 5.24219,-2.621094 -1.312502,2.621094 1.312502,2.621094 z m 0,0"
       id="path33" />
    <g
       clip-path="url(#clip3)"
       clip-rule="nonzero"
       id="g37">
      <path
         style="fill:none;stroke:#000000;stroke-width:1;stroke-linecap:butt;stroke-linejoin:miter;stroke-miterlimit:10;stroke-opacity:1"
         d="m 126.62138,75.998191 7.00086,-3.500429 -1.75283,3.500429 1.75283,3.500429 z m 0,0"
         transform="matrix(0.748792,0,0,0.748792,0.374396,0.374396)"
         id="path35" />
    </g>
  </g>
</svg>
